<svg version="1" xmlns="http://www.w3.org/2000/svg" width="704" height="704" viewBox="0 0 528.000000 528.000000"><path d="M250.2 1c-31.4 3.1-59.6 15.9-80.8 36.7-16 15.6-25.7 30-40.8 60.3-5 10.2-11.5 21.7-14.3 25.5-17.6 24.1-26.1 54.4-21.9 78 .9 4.9 1.8 9.9 2.1 11 .4 1.5-2.6 5.3-12.9 16.2-16 16.9-21.8 24.3-26.1 33.2-6.1 12.4-7.2 26.1-3.2 39.9 2.9 10 6.2 15.5 18.8 31.1 5.8 7.2 9.9 13.3 9.9 14.5 0 3.7-2.8 11.9-8 23.6-8.7 19.5-10.3 25.7-10.4 40-.1 11.6.1 13.2 3.2 22 1.8 5.2 4.7 11.7 6.4 14.5l3 5-2.7 8.5C66 480.8 64 493.3 64 513.5V528h400v-14.8c-.1-38.9-11.4-69.8-35.9-98.1l-5.5-6.4 2.4-1.6c6.5-4.2 11.3-9.8 15-17.5 6.3-13.3 12-37.9 12-52.6 0-9 .4-9.9 7.1-15.3 11.7-9.6 20.9-28.1 20.9-42 0-11.4-4.9-24.1-13.4-35.5-6-7.8-10.5-11.5-23.1-18.5-14.8-8.3-14-7.3-12.6-13.5 3.7-17.3-.7-33.5-20-73.4-10.4-21.4-13.8-29.7-17.4-41.7-11.2-37.4-22.2-55.2-45.7-73.6C325.7 6.1 287.9-2.6 250.2 1zM345 62.5c-.1 2.2-.7 5.1-1.5 6.5l-1.4 2.5-.1-3.1c0-1.7-.3-6-.6-9.5l-.6-6.4 2.1 3c1.3 1.9 2.1 4.5 2.1 7zm-105.4-2c-2.5 5.6-16 20.5-17.3 19.2-.3-.3 1.2-3 3.2-5.9 5.2-7.2 15.8-19.8 16.3-19.3.2.2-.8 2.9-2.2 6zm-45.6 1c-1.7 5.1-11.7 19.7-18.5 27l-5.6 6 2.7-5.5c3.9-8 21.1-32.6 22.1-31.6.3.3 0 2.1-.7 4.1zM356 67c0 1.6-.4 3.2-1 3.5-.6.4-1-1-1-3.5s.4-3.9 1-3.5c.6.3 1 1.9 1 3.5zm-102.7-.1c-.6 2.2-4 5.7-4.8 4.9-.5-.5 4.2-6.8 5-6.8.2 0 .1.9-.2 1.9zm-82.8 7.8c-.9 2.1-2.5 4.7-3.5 5.8-2 1.9-2 1.9-1-1.4.8-2.9 4.5-8.1 5.7-8.1.2 0-.4 1.7-1.2 3.7zm112.9 46.5c14.6 0 27-.3 27.5-.6.5-.4 1.1-.1 1.3.5.2.6 5.8 3 12.4 5.4 8.8 3 12.7 3.9 14.3 3.3 1.7-.6 3-.3 4.9 1.2 5.6 4.2 16.9 11.3 23.7 14.7 3.9 2 7.3 4.1 7.7 4.7 1.1 1.6.9 71.1-.2 85.1-3.3 40.7-26.1 74.6-62.5 92.7-15.8 7.9-29.5 11-48.5 11s-32.7-3.1-48.5-11c-36.4-18.1-59.2-52-62.5-92.7-1.1-13.5-1.2-80.6-.2-87.5l.7-4.4 11.5-3.4c6.3-1.8 19.8-5.1 30-7.3 16.8-3.6 18.8-4.2 21.2-6.9 2.5-2.7 2.8-2.8 3.7-1.1 1 1.7 1.4 1.7 14.3 0 7.3-1 13.8-1.8 14.3-1.9.6 0 1.6-1.4 2.3-3.2l1.2-3.2 2.4 2.3c2.5 2.3 2.7 2.3 29 2.3zM109.5 196c1.3 22.4 7.7 46.5 17.9 67.5 5.1 10.6 7.2 13.9 20 32.5l5.9 8.5-4.7-4.5c-5.7-5.3-17.1-22.2-22.7-33.1-8.7-17.4-16.7-40.7-19.5-56.9-1.6-9.3-1.5-23 .3-29 .7-2.4.7-2.4 1.4 1 .4 1.9 1 8.2 1.4 14zm291.6 35.7c-1.3 5-5.5 13.8-7.1 14.8-2.8 1.8.6-10.4 4.8-17.2 3.1-5 3.9-4.1 2.3 2.4zm19.3 3.5c-.5.7-3 4.6-5.6 8.7-4.5 6.8-8.8 17.8-8.8 22.2 0 1-.5 1.9-1.1 1.9-.8 0-1-2.4-.7-7.9.5-9.1 3.2-14.7 10.5-21.8 4.3-4.1 7.3-5.7 5.7-3.1zM117.5 269c3 5.8 7.4 13.4 9.8 17 2.3 3.6 4.7 7.1 5.2 7.9 1.5 2.5-7.4-5.1-10-8.5-3.8-4.9-9.5-16.6-11.1-22.6-2.6-10-1.9-9.3 6.1 6.2zm-14.7 8.2c4.7 13.3 6.3 15.8 18.3 28.5 20.3 21.5 27.8 33.3 30.2 47.3.5 2.4-1.3-.4-5.6-8.6-7.5-14.6-11.9-20.5-25.7-34.9-5.8-6.1-12.1-13.2-13.9-15.8-4.3-6.3-7.2-14.6-7.8-22.2-.5-7.3.4-6.2 4.5 5.7zm354.7.3c4 4.2 6.5 11.1 6.5 17.9 0 6-1.1 5.2-3.5-2.5-.9-3.2-3.2-8.7-4.9-12.3-1.8-3.6-2.8-6.6-2.3-6.6s2.4 1.6 4.2 3.5zm-45 24.6c2.2 1.2 5.1 3.1 6.3 4.3 2.9 2.6 7.5 10.2 7 11.5-.1.6-4.9-3.3-10.6-8.5-10.2-9.4-11.1-11.7-2.7-7.3zM90.6 321.7c2.1 3.2 7.8 11.1 12.6 17.5 9.3 12.5 13.7 20.8 16.4 30.4 2.2 8.1 2.9 31.1 1.1 38.4-1.3 5.4-1.3 5.3-2-12-1-27.7-3.7-35.6-19.3-55.5-8.3-10.6-15.4-20.6-20.4-29l-2.4-4 5 4.2c2.8 2.4 6.9 6.9 9 10zm32.9 4.4c2.5 4.7 4.8 10.9 4 10.9-1.7 0-14.5-20-14.5-22.7 0-1.7 8 7.3 10.5 11.8zm285.7-5c3.1 1.6 8.3 6.7 7.6 7.5-.2.1-4.7-1.9-10-4.6-5.3-2.7-9.4-5.1-9-5.4.9-1 7.3.5 11.4 2.5zm-4.2 16c1.1.7-.3.8-4.5.3-3.3-.3-6.2-.8-6.4-1-1-.9 9.6-.3 10.9.7zM224.3 349c24.3 9.3 55.1 9.3 79.4 0 4.3-1.7 7.9-3 8-3 .2 0 .3 4.5.3 10v10h15l-6.4 12.7c-6.5 13.1-12.5 28.1-14.6 36.5l-1.2 4.8-2.8-2c-3.7-2.6-10.8-2.6-18.4 0-12.3 4.4-26.9 4.4-39.2 0-3.2-1.1-8.1-2-10.9-2-4.4 0-5.7.5-10.8 4.6l-5.8 4.5-3.2-2.4c-17.8-13.6-24.3-34-16.1-50.4l2.9-5.8 7.8-.3 7.7-.3V356c0-5.5.1-10 .3-10 .1 0 3.7 1.3 8 3zm179.6 12.5c6.1.8 14.3 5 18.8 9.8l3.8 4-6.6-3.7c-7.4-4.1-17.9-7-28.7-8.1-4-.4-7.1-.9-6.8-1.2.7-.7 10.8-2 13.1-1.7 1.1.1 4 .5 6.4.9zm-301.9 19c2.2 8 .9 16-4.4 26.1-2.5 4.9-6.2 10.7-8.1 12.9l-3.5 4 3.6-8.5c2-4.7 4.8-11.2 6.2-14.5 1.9-4.6 2.6-8.3 3-15.7.2-5.4.8-9.6 1.2-9.3.4.2 1.3 2.5 2 5zm304.8 5.4c1.9 1.2-6.2 2.1-17.2 2l-9.1-.1 4.5-1.3c5.1-1.5 19.8-1.9 21.8-.6zM84.6 405.7l-1.5 2.8-.1-3.2c0-1.8.6-4.5 1.3-6l1.2-2.8.3 3.2c.2 1.8-.4 4.5-1.2 6zm272 10.1c.1 8.7.5 11.5 2.3 15.3 2.9 6.2 8.9 11.7 19.6 18.2 11 6.7 14.6 11.2 15.2 18.9.3 2.9 0 6.4-.5 7.8-.8 2.2-1 1.7-2-3.8-2.1-11.6-5.1-15.3-18.6-22.5-7.9-4.2-14.6-10.4-17.6-16.3-3.9-7.9-3.8-22 .3-27.2.5-.6 1-1.2 1.1-1.2 0 0 .2 4.8.2 10.8zm3.6 42.1c7.1 4.5 11.1 9.7 13.3 17.1.6 2.1.1 1.8-2.6-1.5-1.8-2.2-6.5-7.3-10.3-11.3-3.8-3.9-6.5-7.2-6-7.2.6 0 3.1 1.3 5.6 2.9z"/><path d="M200.8 133.4c-15.1 5.4-25.8 19.3-25 32.3.2 2.9 2.9 3 3.8.1.3-1.2 3.9-5.4 7.8-9.2 11.6-11.4 26.3-17.5 42.4-17.6 8.6 0 8.5-2.2-.4-5-7.7-2.3-22.7-2.7-28.6-.6zM298.3 134c-3.9 1.3-6.3 2.6-6.3 3.5 0 1.2 1.4 1.5 6.3 1.5 18.5.1 39.1 10.5 48.2 24.4 3.9 6 5.5 5.9 5.5-.2 0-9.7-8.2-21.3-19.2-27.2-5.9-3.3-6.9-3.5-17.3-3.7-8.9-.2-12.2.1-17.2 1.7zM203.4 183.4c-3 3-3.4 4-3.4 8.6s.4 5.6 3.4 8.6 4 3.4 8.6 3.4 5.6-.4 8.6-3.4 3.4-4 3.4-8.6-.4-5.6-3.4-8.6-4-3.4-8.6-3.4-5.6.4-8.6 3.4zM307.4 183.4c-3 3-3.4 4-3.4 8.6s.4 5.6 3.4 8.6 4 3.4 8.6 3.4 5.6-.4 8.6-3.4 3.4-4 3.4-8.6-.4-5.6-3.4-8.6-4-3.4-8.6-3.4-5.6.4-8.6 3.4zM240 230.1c0 3.2 3.6 7.6 8.8 10.6 4.3 2.6 5.5 2.8 15.2 2.8s10.9-.2 15.2-2.8c5.2-3 8.8-7.4 8.8-10.6 0-2.1-.3-2.1-24-2.1s-24 0-24 2.1zM236.7 264.7c-.4.3-.7 2.3-.7 4.3 0 5.5 3.5 10 10.5 13.5 5.6 2.8 6.7 3 17.5 3s11.9-.2 17.5-3c7.4-3.7 10.7-8.2 10.3-14-.3-3.7-.5-4-3.5-4.3-2.8-.3-3.4.1-4.6 3-2.8 6.6-9.5 10-19.7 10s-16.9-3.4-19.7-10c-1-2.5-1.9-3.2-4.1-3.2-1.6 0-3.2.3-3.5.7z"/></svg>